<svg width="88" height="29" fill="none" xmlns="http://www.w3.org/2000/svg"><path d="M36.11 3.98c-1.007 1.009-2.015 1.009-3.023 0l-.095-.094c-1.008-1.008-1.008-2.016 0-3.024l.095-.094c1.008-1.008 2.016-1.008 3.024 0l.094.094c1.008 1.008 1.008 2.016 0 3.024l-.094.095z" fill="#F2F2F2"/><path d="M17.164 23.4c-2.914 2.914-5.828 2.914-8.742 0l-6.237-6.236c-2.913-2.914-2.913-5.828 0-8.742l6.237-6.237c2.914-2.913 5.828-2.913 8.742 0L23.4 8.422c2.913 2.914 2.913 5.828 0 8.742L17.164 23.4z" fill="url(#paint0_linear_703_369)"/><path d="M33.355 6.406h2.488c.347 0 .63.284.63.63v13.199c0 .346-.283.63-.63.63h-2.488a.632.632 0 01-.63-.63V7.036c0-.346.283-.63.63-.63zm10.363 21.94h-2.362a.689.689 0 01-.693-.693V7.619c0-.3.189-.567.472-.661 1.008-.363 3.48-1.134 6.048-1.134 5.056 0 8.537 3.465 8.537 7.812s-3.465 7.812-8.537 7.812c-1.307 0-2.756-.442-2.756-.442v6.616c-.016.409-.33.724-.709.724zm.693-18.9v8.395s1.45.44 2.756.44c2.757 0 4.63-1.873 4.63-4.63 0-2.756-1.873-4.63-4.63-4.63-1.307-.016-2.756.425-2.756.425zm20.475 7.67l3.67-9.686a1.566 1.566 0 011.465-1.008h2.362c.284 0 .488.3.378.567l-5.528 13.466a.685.685 0 01-.646.426h-3.544a.709.709 0 01-.645-.426L56.869 6.99a.414.414 0 01.378-.567h2.363c.646 0 1.244.41 1.465 1.008l3.67 9.686h.141zm14.852 4.332c-2.725 0-4.835-1.26-5.607-1.78a.426.426 0 01-.126-.583l.93-1.685a.62.62 0 01.85-.236c.74.425 2.174 1.102 3.953 1.102 2.599 0 3.465-.866 3.465-1.732 0-2.174-8.678-.725-8.678-5.938 0-2.457 2.315-4.772 6.505-4.772a9.44 9.44 0 015.323 1.638.446.446 0 01.142.582l-.945 1.701a.623.623 0 01-.85.237c-.694-.378-2.017-.977-3.67-.977-1.874 0-2.599.725-2.599 1.59 0 2.174 8.678.725 8.678 5.938.016 2.457-2.457 4.915-7.37 4.915z" fill="#F2F2F2"/><defs><linearGradient id="paint0_linear_703_369" x1="3.702" y1="22.246" x2="23.33" y2="1.833" gradientUnits="userSpaceOnUse"><stop offset=".391" stop-color="#F06F0F"/><stop offset="1" stop-color="#FDB423"/></linearGradient></defs></svg>