<svg width="138" height="45" fill="none" xmlns="http://www.w3.org/2000/svg"><path d="M57.194 6.309c-1.594 1.598-3.189 1.598-4.78 0l-.157-.158c-1.595-1.598-1.595-3.197 0-4.793l.157-.157c1.594-1.599 3.188-1.599 4.78 0l.157.157c1.594 1.599 1.594 3.197 0 4.793l-.157.158z" fill="#1C1C1C"/><path d="M27.175 37.153c-4.61 4.623-9.224 4.623-13.835 0l-9.882-9.908c-4.61-4.622-4.61-9.248 0-13.87l9.882-9.908c4.611-4.623 9.224-4.623 13.835 0l9.882 9.908c4.611 4.622 4.611 9.248 0 13.87l-9.882 9.908z" fill="url(#paint0_linear_703_59)"/><path d="M56.777 10.168H52.83c-.555 0-1.005.452-1.005 1.008v20.962c0 .557.45 1.008 1.005 1.008h3.947c.556 0 1.006-.451 1.006-1.008V11.176c0-.556-.45-1.008-1.006-1.008zM69.237 45h-3.74a1.11 1.11 0 01-1.108-1.11v-31.8c0-.473.297-.894.741-1.051 1.59-.563 5.512-1.791 9.57-1.791 8.022 0 13.521 5.515 13.521 12.406 0 6.892-5.499 12.407-13.52 12.407-2.063 0-4.354-.69-4.354-.69v10.513a1.11 1.11 0 01-1.107 1.111l-.003.005zm1.108-30.007v13.328s2.29.69 4.353.69c4.354 0 7.333-2.986 7.333-7.351s-2.979-7.352-7.333-7.352c-2.063 0-4.353.69-4.353.69v-.005zm32.441 12.177l5.809-15.394a2.489 2.489 0 012.325-1.61h3.735a.65.65 0 01.599.895l-8.75 21.395c-.17.415-.574.687-1.023.687H99.86c-.45 0-.853-.272-1.023-.688l-8.75-21.394a.65.65 0 01.599-.895h3.735c1.033 0 1.958.64 2.325 1.61l5.808 15.394h.232zm23.523 6.894c-4.324 0-7.657-1.989-8.885-2.84a.705.705 0 01-.212-.92l1.482-2.671a.986.986 0 011.36-.37c1.168.68 3.445 1.746 6.255 1.746 4.124 0 5.501-1.379 5.501-2.757 0-3.447-13.75-1.148-13.75-9.42 0-3.905 3.668-7.582 10.312-7.582 4.261 0 7.283 1.794 8.43 2.602a.707.707 0 01.212.92l-1.491 2.694a.984.984 0 01-1.335.388c-1.098-.613-3.196-1.546-5.813-1.546-2.979 0-4.125 1.148-4.125 2.526 0 3.447 13.75 1.149 13.75 9.42 0 3.905-3.897 7.812-11.689 7.812l-.002-.002z" fill="#1C1C1C"/><defs><linearGradient id="paint0_linear_703_59" x1="19.953" y1="39.134" x2="39.685" y2="-23.8" gradientUnits="userSpaceOnUse"><stop offset=".39" stop-color="#F06F0F"/><stop offset="1" stop-color="#FDB423"/></linearGradient></defs></svg>