<?xml version="1.0" encoding="UTF-8"?>
<!DOCTYPE svg PUBLIC "-//W3C//DTD SVG 1.1//EN" "http://www.w3.org/Graphics/SVG/1.1/DTD/svg11.dtd">
<!-- Creator: CorelDRAW -->
<svg xmlns="http://www.w3.org/2000/svg" xml:space="preserve" width="36.5123mm" height="11.8761mm" version="1.1" style="shape-rendering:geometricPrecision; text-rendering:geometricPrecision; image-rendering:optimizeQuality; fill-rule:evenodd; clip-rule:evenodd"
viewBox="0 0 21.1 6.86"
 xmlns:xlink="http://www.w3.org/1999/xlink"
 xmlns:xodm="http://www.corel.com/coreldraw/odm/2003">
 <defs>
  <style type="text/css">
   <![CDATA[
    .fil0 {fill:#1C1C1C;fill-rule:nonzero}
    .fil1 {fill:url(#id0)}
   ]]>
  </style>
  <linearGradient id="id0" gradientUnits="userSpaceOnUse" x1="1.01" y1="5.24" x2="5.51" y2="0.43">
   <stop offset="0" style="stop-opacity:1; stop-color:#F06F0F"/>
   <stop offset="0.388235" style="stop-opacity:1; stop-color:#F06F0F"/>
   <stop offset="1" style="stop-opacity:1; stop-color:#FDB423"/>
  </linearGradient>
 </defs>
 <g id="Слой_x0020_1">
  <metadata id="CorelCorpID_0Corel-Layer"/>
  <path class="fil0" d="M8.74 0.96c-0.24,0.24 -0.49,0.24 -0.73,0l-0.02 -0.02c-0.24,-0.24 -0.24,-0.49 0,-0.73l0.02 -0.02c0.24,-0.24 0.49,-0.24 0.73,0l0.02 0.02c0.24,0.24 0.24,0.49 0,0.73l-0.02 0.02z"/>
  <path class="fil1" d="M2.04 0.53l-1.51 1.51c-0.71,0.71 -0.71,1.41 0,2.12l1.51 1.51c0.71,0.71 1.41,0.71 2.12,0l1.51 -1.51c0.71,-0.71 0.71,-1.41 0,-2.12l-1.51 -1.51c-0.35,-0.35 -0.71,-0.53 -1.06,-0.53 -0.35,0 -0.71,0.18 -1.06,0.53z"/>
  <path class="fil0" d="M8.08 1.55l0.6 0c0.08,0 0.15,0.07 0.15,0.15l0 3.2c0,0.08 -0.07,0.15 -0.15,0.15l-0.6 0c-0.08,0 -0.15,-0.07 -0.15,-0.15l0 -3.2c0,-0.08 0.07,-0.15 0.15,-0.15z"/>
  <path class="fil0" d="M10.76 2.29l0 2.03c0,0 0.35,0.11 0.67,0.11 0.67,0 1.12,-0.46 1.12,-1.12 0,-0.67 -0.46,-1.12 -1.12,-1.12 -0.32,0 -0.67,0.11 -0.67,0.11zm-0.17 4.58l-0.57 0c-0.09,0 -0.17,-0.08 -0.17,-0.17l0 -4.85c0,-0.07 0.05,-0.14 0.11,-0.16 0.24,-0.09 0.84,-0.27 1.46,-0.27 1.23,0 2.07,0.84 2.07,1.89 0,1.05 -0.84,1.89 -2.07,1.89 -0.32,0 -0.67,-0.11 -0.67,-0.11l0 1.6c0,0.09 -0.08,0.17 -0.17,0.17z"/>
  <path class="fil0" d="M15.79 4.14l0.89 -2.35c0.06,-0.15 0.2,-0.25 0.36,-0.25l0.57 0c0.07,0 0.12,0.07 0.09,0.14l-1.34 3.26c-0.03,0.06 -0.09,0.1 -0.16,0.1l-0.86 0c-0.07,0 -0.13,-0.04 -0.16,-0.1l-1.34 -3.26c-0.03,-0.07 0.02,-0.14 0.09,-0.14l0.57 0c0.16,0 0.3,0.1 0.36,0.25l0.89 2.35 0.04 0z"/>
  <path class="fil0" d="M19.31 5.19c-0.66,0 -1.17,-0.3 -1.36,-0.43 -0.05,-0.03 -0.06,-0.09 -0.03,-0.14l0.23 -0.41c0.04,-0.07 0.13,-0.1 0.21,-0.06 0.18,0.1 0.53,0.27 0.96,0.27 0.63,0 0.84,-0.21 0.84,-0.42 0,-0.53 -2.1,-0.18 -2.1,-1.44 0,-0.6 0.56,-1.16 1.58,-1.16 0.65,0 1.11,0.27 1.29,0.4 0.05,0.03 0.06,0.09 0.03,0.14l-0.23 0.41c-0.04,0.07 -0.13,0.1 -0.2,0.06 -0.17,-0.09 -0.49,-0.24 -0.89,-0.24 -0.46,0 -0.63,0.18 -0.63,0.39 0,0.53 2.1,0.18 2.1,1.44 0,0.6 -0.6,1.19 -1.79,1.19z"/>
 </g>
</svg>
