<svg width="27" height="27" fill="none" xmlns="http://www.w3.org/2000/svg"><path fill-rule="evenodd" clip-rule="evenodd" d="M17.644 0H9.356C1.79 0 0 1.791 0 9.356v8.288C0 25.21 1.791 27 9.356 27h8.288C25.21 27 27 25.209 27 17.644V9.356C27 1.79 25.19 0 17.644 0zm4.154 19.264h-1.962c-.744 0-.972-.59-2.306-1.944-1.162-1.124-1.677-1.276-1.963-1.276-.4 0-.514.114-.514.667v1.772c0 .476-.153.762-1.41.762-2.077 0-4.383-1.258-6.002-3.601-2.44-3.43-3.106-6.003-3.106-6.536 0-.286.114-.553.667-.553h1.962c.496 0 .686.23.877.763.972 2.8 2.591 5.259 3.258 5.259.248 0 .362-.115.362-.744v-2.896c-.076-1.334-.781-1.448-.781-1.924 0-.229.19-.458.495-.458h3.087c.42 0 .572.23.572.724v3.907c0 .419.19.571.305.571.247 0 .457-.152.914-.61 1.41-1.581 2.42-4.02 2.42-4.02.134-.286.362-.553.858-.553h1.962c.591 0 .724.305.591.725-.248 1.143-2.649 4.534-2.649 4.534-.21.343-.285.496 0 .877.21.286.896.876 1.353 1.41.839.953 1.486 1.753 1.658 2.305.19.553-.095.839-.648.839z" fill="#F3F3F3"/></svg>