<svg version="1.1" id="Слой_1" xmlns="http://www.w3.org/2000/svg" x="0" y="0" viewBox="0 0 229 232" xml:space="preserve"><path d="M153.7 2c4 .7 8.1 1.2 12.1 2.1 27.3 6.2 46.9 28.2 49.8 56.1 2.3 22.3-4.6 41.6-20.3 57.5-30.5 30.8-61.3 61.4-92 92-14.4 14.4-36.4 18-55 9.2-14.9-7-24.7-18.4-27.9-34.7-3.3-16.8 1.3-31.5 13.3-43.6C64.4 109.8 95.1 79 126 48.3c16.6-16.5 43.7-10 50.7 12 3.4 10.8 1.3 20.7-6.2 29.3-3.4 3.9-7.2 7.4-10.9 11.1-17.4 17.5-34.9 34.9-52.3 52.4-.6.6-1 1.4-1.5 2-5.5-5.5-10.5-10.7-15.8-16 .3-.3.8-.9 1.4-1.5l61.2-61.2c1.8-1.8 3.3-3.8 3.3-6.6 0-3.4-1.5-6-4.5-7.6-3-1.5-5.9-1.2-8.6.7-.7.5-1.3 1.1-1.9 1.7l-91.2 91.2c-10.6 10.6-11 26-1.2 36.5 9.6 10.3 28.3 12.5 39.7 1 30.1-30.5 60.5-60.7 90.8-91 9.6-9.6 14.8-21.2 14.7-34.9-.1-21.3-13.4-37.8-34.2-42.2-17.3-3.6-32.7.4-45.5 13.2-19.9 20.6-40.2 40.8-60.5 61-.6.6-1 1.2-1.4 1.6L36.3 85.2c.3-.3.8-.9 1.4-1.5C58 63.5 78.3 43.4 98.5 23c12.1-12.2 26.7-19 43.8-20.7.5 0 1-.2 1.5-.3h9.9z" fill="#fff"/></svg>