<svg width="40" height="28" fill="none" xmlns="http://www.w3.org/2000/svg"><path d="M39.5 5.577C39.12 2.62 37.39.767 34.32.494 30.802.18 23.191 0 19.661 0 12.44 0 9.213.174 5.798.523 2.544.855 1.12 2.282.56 5.228.167 7.293 0 9.226 0 13.796c0 4.105.196 6.687.5 8.86.418 2.982 2.493 4.658 5.534 4.908 3.538.291 10.624.436 14.128.436 3.386 0 11.005-.174 14.393-.552 3.032-.338 4.474-1.936 4.944-4.88 0 0 .501-3.224.501-8.8 0-3.176-.235-6.13-.5-8.191zm-23.753 13.97V8.2l10.949 5.616-10.95 5.732z" fill="#F3F3F3"/></svg>