<?xml version="1.0" encoding="UTF-8"?><svg id="Calque_1" xmlns="http://www.w3.org/2000/svg" width="8.76cm" height="8.53cm" xmlns:xlink="http://www.w3.org/1999/xlink" viewBox="0 0 248.28 241.89"><defs><style>.cls-1{fill:none;}.cls-2{fill:url(#linear-gradient);}.cls-3{fill:url(#radial-gradient);fill-rule:evenodd;}.cls-4{fill:#fff;}.cls-5{fill:url(#linear-gradient-3);}.cls-6{fill:url(#linear-gradient-4);}.cls-7{fill:url(#linear-gradient-2);}.cls-8{fill:url(#linear-gradient-6);}.cls-9{fill:url(#linear-gradient-5);}</style><linearGradient id="linear-gradient" x1="284.5" y1="191.03" x2="261.91" y2="191.03" gradientTransform="translate(354.96 277.55) rotate(-135) scale(1 -1)" gradientUnits="userSpaceOnUse"><stop offset="0" stop-color="#000"/><stop offset=".04" stop-color="#020202"/><stop offset=".06" stop-color="#0a0a0a"/><stop offset=".08" stop-color="#171717"/><stop offset=".09" stop-color="#2b2b2b"/><stop offset=".1" stop-color="#444"/><stop offset=".12" stop-color="#636363"/><stop offset=".13" stop-color="#888"/><stop offset=".14" stop-color="#b3b3b3"/><stop offset=".15" stop-color="#e2e2e2"/><stop offset=".15" stop-color="#fff"/><stop offset=".28" stop-color="#f7f7f7"/><stop offset=".28" stop-color="#e0e0e0"/><stop offset=".29" stop-color="#bbb"/><stop offset=".3" stop-color="#9b9b9b"/><stop offset=".3" stop-color="gray"/><stop offset=".31" stop-color="#6a6a6a"/><stop offset=".32" stop-color="#595959"/><stop offset=".33" stop-color="#4d4d4d"/><stop offset=".35" stop-color="#464646"/><stop offset=".4" stop-color="#454545"/><stop offset=".52" stop-color="#464646"/><stop offset=".56" stop-color="#4d4d4d"/><stop offset=".6" stop-color="#595959"/><stop offset=".62" stop-color="#6a6a6a"/><stop offset=".64" stop-color="gray"/><stop offset=".65" stop-color="#858585"/><stop offset=".76" stop-color="#4d4d4d"/><stop offset=".77" stop-color="#393939"/><stop offset=".78" stop-color="#282828"/><stop offset=".79" stop-color="#1c1c1c"/><stop offset=".81" stop-color="#151515"/><stop offset=".86" stop-color="#141414"/><stop offset=".87" stop-color="#000"/><stop offset="1" stop-color="#6e6e6e"/></linearGradient><linearGradient id="linear-gradient-2" x1="284.5" y1="136.8" x2="261.91" y2="136.8" gradientTransform="translate(201.85 454.29) rotate(-90) scale(1 -1)" gradientUnits="userSpaceOnUse"><stop offset="0" stop-color="#000"/><stop offset=".04" stop-color="#020202"/><stop offset=".06" stop-color="#0a0a0a"/><stop offset=".08" stop-color="#171717"/><stop offset=".09" stop-color="#2b2b2b"/><stop offset=".1" stop-color="#444"/><stop offset=".12" stop-color="#636363"/><stop offset=".13" stop-color="#888"/><stop offset=".14" stop-color="#b3b3b3"/><stop offset=".15" stop-color="#e2e2e2"/><stop offset=".15" stop-color="#fff"/><stop offset=".28" stop-color="#f7f7f7"/><stop offset=".28" stop-color="#e0e0e0"/><stop offset=".29" stop-color="#bbb"/><stop offset=".3" stop-color="#9b9b9b"/><stop offset=".3" stop-color="gray"/><stop offset=".31" stop-color="#6a6a6a"/><stop offset=".32" stop-color="#595959"/><stop offset=".33" stop-color="#4d4d4d"/><stop offset=".35" stop-color="#464646"/><stop offset=".4" stop-color="#454545"/><stop offset=".52" stop-color="#464646"/><stop offset=".56" stop-color="#4d4d4d"/><stop offset=".6" stop-color="#595959"/><stop offset=".62" stop-color="#6a6a6a"/><stop offset=".64" stop-color="gray"/><stop offset=".65" stop-color="#858585"/><stop offset=".76" stop-color="#4d4d4d"/><stop offset=".77" stop-color="#393939"/><stop offset=".78" stop-color="#282828"/><stop offset=".79" stop-color="#1c1c1c"/><stop offset=".81" stop-color="#151515"/><stop offset=".86" stop-color="#141414"/><stop offset=".87" stop-color="#000"/><stop offset="1" stop-color="#6e6e6e"/></linearGradient><linearGradient id="linear-gradient-3" x1="267.12" y1="88.66" x2="279.29" y2="76.49" gradientTransform="translate(354.96 277.55) rotate(-135) scale(1 -1)" gradientUnits="userSpaceOnUse"><stop offset="0" stop-color="#fafafa"/><stop offset=".15" stop-color="#9b9b9b"/><stop offset=".44" stop-color="#fff"/><stop offset=".8" stop-color="#f7f7f7"/><stop offset=".84" stop-color="#e1e1e1"/><stop offset=".92" stop-color="#a9a9a9"/><stop offset="1" stop-color="#6e6e6e"/></linearGradient><linearGradient id="linear-gradient-4" x1="134.68" y1="143.33" x2="144.51" y2="133.51" gradientTransform="translate(247.79) rotate(-180) scale(1 -1)" gradientUnits="userSpaceOnUse"><stop offset="0" stop-color="#fff"/><stop offset=".15" stop-color="#7a7b7b"/><stop offset=".23" stop-color="#484848"/><stop offset=".52" stop-color="#fff"/><stop offset=".71" stop-color="#fff"/><stop offset=".88" stop-color="#4d4c4d"/><stop offset="1" stop-color="#fff"/></linearGradient><linearGradient id="linear-gradient-5" x1="3068.36" y1="-1306.87" x2="3212.33" y2="-1306.87" gradientTransform="translate(-2980.73 -1226.29) scale(1 -1)" gradientUnits="userSpaceOnUse"><stop offset="0" stop-color="#48484a"/><stop offset=".47" stop-color="#8a8b8d"/><stop offset=".82" stop-color="#b6b7b9"/><stop offset="1" stop-color="#c7c9cb"/></linearGradient><linearGradient id="linear-gradient-6" x1="17.58" y1="80.59" x2="158.79" y2="80.59" gradientTransform="translate(247.79) rotate(-180) scale(1 -1)" gradientUnits="userSpaceOnUse"><stop offset=".02" stop-color="#000"/><stop offset="1" stop-color="#dbd9d9"/></linearGradient><radialGradient id="radial-gradient" cx="89.09" cy="76.04" fx="89.09" fy="76.04" r="76.93" gradientTransform="translate(247.79) rotate(-180) scale(1 -1)" gradientUnits="userSpaceOnUse"><stop offset=".33" stop-color="#fff"/><stop offset=".86" stop-color="#eaf1ef"/><stop offset=".9" stop-color="#e3edea"/><stop offset=".95" stop-color="#d0e1dd"/><stop offset="1" stop-color="#bdd6cf"/></radialGradient></defs><rect class="cls-1" x="4.4" y="2.7" width="239" height="239"/><path d="M18.07,212.09c1.77-1.76,6.77,.38,11.18,4.79,4.41,4.41,6.56,9.42,4.79,11.18-1.77,1.76-6.77-.38-11.18-4.79s-6.56-9.42-4.79-11.18Z"/><path class="cls-2" d="M18.71,211.45c1.76-1.77,6.77,.38,11.18,4.79,4.41,4.41,6.56,9.42,4.79,11.18-1.76,1.76-6.77-.38-11.18-4.79-4.41-4.41-6.56-9.42-4.79-11.18Z"/><g><rect class="cls-7" x="10.82" y="169.8" width="108.45" height="22.59" transform="translate(-109 99.03) rotate(-45)"/><path class="cls-5" d="M95.4,134.76c-1.77,1.76,.38,6.77,4.79,11.18,4.41,4.41,9.42,6.56,11.18,4.79,1.76-1.76-.38-6.77-4.79-11.18-4.41-4.41-9.42-6.56-11.18-4.79Z"/><path class="cls-6" d="M98.83,137.96l10.87-10.87,9.83,9.82-10.87,10.87c-1.09,1.09-4.16-.23-6.88-2.95-2.71-2.71-4.03-5.79-2.95-6.88Z"/><g><path class="cls-9" d="M159.61,8.6c-39.7,0-71.99,32.29-71.99,71.99s32.29,71.99,71.99,71.99,71.99-32.29,71.99-71.99S199.31,8.6,159.61,8.6Zm0,138.9c-36.89,0-66.91-30.02-66.91-66.91S122.72,13.67,159.61,13.67s66.91,30.02,66.91,66.91-30.02,66.91-66.91,66.91Z"/><path class="cls-8" d="M159.61,151.19c38.93,0,70.61-31.67,70.61-70.61S198.54,9.98,159.61,9.98s-70.61,31.67-70.61,70.61,31.67,70.61,70.61,70.61Zm0-136.23c36.19,0,65.62,29.44,65.62,65.63s-29.44,65.63-65.62,65.63-65.62-29.44-65.62-65.63S123.43,14.96,159.61,14.96Z"/><path class="cls-3" d="M159.61,13.12c-37.24,0-67.47,30.23-67.47,67.47s30.22,67.47,67.47,67.47,67.48-30.23,67.48-67.47S196.85,13.12,159.61,13.12Z"/></g><path class="cls-4" d="M129.32,33.95c-.94,10.94,14.29,21.18,34.01,22.87,19.72,1.69,36.47-5.81,37.4-16.76,.94-10.94-14.29-21.19-34.01-22.87-19.72-1.69-36.47,5.81-37.41,16.76Z"/></g></svg>