<svg width="36" height="37" viewBox="0 0 36 37" fill="none" xmlns="http://www.w3.org/2000/svg">
<path d="M8.97095 17.9067C8.41866 17.9067 7.97095 18.3545 7.97095 18.9067C7.97095 19.459 8.41866 19.9067 8.97095 19.9067L8.97095 17.9067ZM27.6192 19.6138C28.0098 19.2233 28.0098 18.5902 27.6192 18.1996L21.2553 11.8357C20.8647 11.4451 20.2316 11.4451 19.8411 11.8357C19.4505 12.2262 19.4505 12.8594 19.8411 13.2499L25.4979 18.9067L19.8411 24.5636C19.4505 24.9541 19.4505 25.5873 19.8411 25.9778C20.2316 26.3683 20.8647 26.3683 21.2553 25.9778L27.6192 19.6138ZM8.97095 19.9067L26.9121 19.9067L26.9121 17.9067L8.97095 17.9067L8.97095 19.9067Z" fill="#1C1C1C"/>
<circle cx="17.5336" cy="18.4988" r="16.5334" stroke="#1C1C1C" stroke-width="2"/>
</svg>
