<svg width="88" height="29" viewBox="0 0 88 29" fill="none" xmlns="http://www.w3.org/2000/svg">
<path d="M36.1108 3.98081C35.1028 4.98881 34.0948 4.98881 33.0868 3.98081L32.9923 3.88631C31.9843 2.87831 31.9843 1.87031 32.9923 0.86231L33.0868 0.76781C34.0948 -0.24019 35.1028 -0.24019 36.1108 0.76781L36.2053 0.86231C37.2133 1.87031 37.2133 2.87831 36.2053 3.88631L36.1108 3.98081Z" fill="#F2F2F2"/>
<path d="M17.1636 23.4006C14.2498 26.3143 11.3361 26.3143 8.42231 23.4006L2.18531 17.1636C-0.728437 14.2498 -0.728437 11.3361 2.18531 8.42231L8.42231 2.18531C11.3361 -0.728438 14.2498 -0.728438 17.1636 2.18531L23.4006 8.42231C26.3143 11.3361 26.3143 14.2498 23.4006 17.1636L17.1636 23.4006Z" fill="url(#paint0_linear_703_369)"/>
<path d="M33.3546 6.40631H35.8431C36.1896 6.40631 36.4731 6.68981 36.4731 7.03631V20.2348C36.4731 20.5813 36.1896 20.8648 35.8431 20.8648H33.3546C33.0081 20.8648 32.7246 20.5813 32.7246 20.2348V7.03631C32.7246 6.68981 33.0081 6.40631 33.3546 6.40631Z" fill="#F2F2F2"/>
<path d="M43.7181 28.346H41.3556C40.9618 28.346 40.6626 28.031 40.6626 27.653V7.61905C40.6626 7.3198 40.8516 7.05205 41.1351 6.95755C42.1431 6.5953 44.6158 5.82355 47.1831 5.82355C52.2388 5.82355 55.7196 9.28855 55.7196 13.6355C55.7196 17.9825 52.2546 21.4475 47.1831 21.4475C45.8758 21.4475 44.4268 21.0065 44.4268 21.0065V27.6215C44.4111 28.031 44.0961 28.346 43.7181 28.346ZM44.4111 9.44605V17.8408C44.4111 17.8408 45.8601 18.2818 47.1673 18.2818C49.9236 18.2818 51.7978 16.4075 51.7978 13.6513C51.7978 10.895 49.9236 9.0208 47.1673 9.0208C45.8601 9.00505 44.4111 9.44605 44.4111 9.44605Z" fill="#F2F2F2"/>
<path d="M64.8861 17.1163L68.5558 7.43006C68.7921 6.81581 69.3748 6.42206 70.0206 6.42206H72.3831C72.6666 6.42206 72.8713 6.72131 72.7611 6.98906L67.2328 20.4553C67.1226 20.7231 66.8706 20.8806 66.5871 20.8806H63.0433C62.7598 20.8806 62.5078 20.7073 62.3976 20.4553L56.8693 6.98906C56.7591 6.72131 56.9638 6.42206 57.2473 6.42206H59.6098C60.2556 6.42206 60.8541 6.83156 61.0746 7.43006L64.7443 17.1163H64.8861Z" fill="#F2F2F2"/>
<path d="M79.7383 21.4475C77.0135 21.4475 74.903 20.1875 74.1312 19.6678C73.9422 19.5418 73.8793 19.2898 74.0053 19.085L74.9345 17.3998C75.1078 17.1005 75.4857 16.9903 75.785 17.1635C76.5252 17.5888 77.9585 18.266 79.7383 18.266C82.337 18.266 83.2033 17.3998 83.2033 16.5335C83.2033 14.36 74.525 15.809 74.525 10.5958C74.525 8.1388 76.8403 5.82355 81.0298 5.82355C83.723 5.82355 85.6288 6.95755 86.3533 7.46155C86.5423 7.58755 86.6052 7.83955 86.495 8.0443L85.55 9.7453C85.3767 10.0445 84.9988 10.1548 84.6995 9.98155C84.0065 9.60355 82.6835 9.00505 81.0298 9.00505C79.1555 9.00505 78.431 9.72955 78.431 10.5958C78.431 12.7693 87.1093 11.3203 87.1093 16.5335C87.125 18.9905 84.6523 21.4475 79.7383 21.4475Z" fill="#F2F2F2"/>
<defs>
<linearGradient id="paint0_linear_703_369" x1="3.7024" y1="22.2456" x2="23.3302" y2="1.83266" gradientUnits="userSpaceOnUse">
<stop offset="0.391" stop-color="#F06F0F"/>
<stop offset="1" stop-color="#FDB423"/>
</linearGradient>
</defs>
</svg>
