<svg width="138" height="45" viewBox="0 0 138 45" fill="none" xmlns="http://www.w3.org/2000/svg">
<path d="M57.194 6.30851C55.5997 7.90689 54.0054 7.90689 52.4137 6.30851L52.2565 6.15092C50.6622 4.55253 50.6622 2.95414 52.2565 1.35825L52.4137 1.20067C54.0079 -0.397721 55.6022 -0.397721 57.194 1.20067L57.3511 1.35825C58.9454 2.95664 58.9454 4.55503 57.3511 6.15092L57.194 6.30851Z" fill="#1C1C1C"/>
<path d="M27.1749 37.1531C22.5642 41.7757 17.9511 41.7757 13.3404 37.1531L3.45798 27.2451C-1.15266 22.6226 -1.15266 17.9975 3.45798 13.3749L13.3404 3.46693C17.9511 -1.15564 22.5642 -1.15564 27.1749 3.46693L37.0573 13.3749C41.668 17.9975 41.668 22.6226 37.0573 27.2451L27.1749 37.1531Z" fill="url(#paint0_linear_703_59)"/>
<path d="M56.7773 10.1681H52.8303C52.275 10.1681 51.8249 10.6195 51.8249 11.1762V32.1379C51.8249 32.6946 52.275 33.1459 52.8303 33.1459H56.7773C57.3326 33.1459 57.7828 32.6946 57.7828 32.1379V11.1762C57.7828 10.6195 57.3326 10.1681 56.7773 10.1681Z" fill="#1C1C1C"/>
<path d="M69.237 45H65.4971C64.8858 45 64.3894 44.5022 64.3894 43.8894V12.0892C64.3894 11.6165 64.6863 11.1962 65.1304 11.0386C66.7196 10.4758 70.6417 9.24764 74.7009 9.24764C82.7222 9.24764 88.221 14.7632 88.221 21.6545C88.221 28.5459 82.7222 34.0614 74.7009 34.0614C72.6376 34.0614 70.3473 33.371 70.3473 33.371V43.8844C70.3473 44.4972 69.8508 44.995 69.2395 44.995L69.237 45ZM70.3448 14.9933V28.3207C70.3448 28.3207 72.6351 29.0111 74.6984 29.0111C79.0521 29.0111 82.0311 26.0245 82.0311 21.6595C82.0311 17.2946 79.0521 14.3079 74.6984 14.3079C72.6351 14.3079 70.3448 14.9983 70.3448 14.9983V14.9933Z" fill="#1C1C1C"/>
<path d="M102.786 27.1701L108.595 11.7765C108.961 10.8085 109.887 10.1656 110.92 10.1656H114.655C115.114 10.1656 115.428 10.6334 115.254 11.0611L106.504 32.4555C106.334 32.8708 105.93 33.1434 105.481 33.1434H99.8599C99.4108 33.1434 99.0066 32.8708 98.837 32.4555L90.0872 11.0611C89.9126 10.6334 90.2269 10.1656 90.686 10.1656H94.4209C95.4538 10.1656 96.3794 10.806 96.7462 11.7765L102.554 27.1701H102.786Z" fill="#1C1C1C"/>
<path d="M126.309 34.0639C121.985 34.0639 118.652 32.0753 117.424 31.2248C117.127 31.0197 117.038 30.622 117.212 30.3043L118.694 27.6329C118.964 27.1476 119.575 26.985 120.054 27.2626C121.222 27.943 123.499 29.0086 126.309 29.0086C130.433 29.0086 131.81 27.6304 131.81 26.2521C131.81 22.8052 118.06 25.1039 118.06 16.8319C118.06 12.9272 121.728 9.25014 128.372 9.25014C132.633 9.25014 135.655 11.0436 136.802 11.8516C137.097 12.0592 137.189 12.4544 137.014 12.7721L135.523 15.4661C135.258 15.9414 134.662 16.1165 134.188 15.8538C133.09 15.241 130.992 14.3079 128.375 14.3079C125.396 14.3079 124.25 15.4561 124.25 16.8344C124.25 20.2813 138 17.9825 138 26.2546C138 30.1593 134.103 34.0664 126.311 34.0664L126.309 34.0639Z" fill="#1C1C1C"/>
<defs>
<linearGradient id="paint0_linear_703_59" x1="19.9535" y1="39.1336" x2="39.6852" y2="-23.8002" gradientUnits="userSpaceOnUse">
<stop offset="0.39" stop-color="#F06F0F"/>
<stop offset="1" stop-color="#FDB423"/>
</linearGradient>
</defs>
</svg>
