<svg width="27" height="27" viewBox="0 0 27 27" fill="none" xmlns="http://www.w3.org/2000/svg">
<path fill-rule="evenodd" clip-rule="evenodd" d="M17.6443 0H9.35568C1.79111 0 0 1.79111 0 9.35568V17.6443C0 25.2089 1.79111 27 9.35568 27H17.6443C25.2089 27 27 25.2089 27 17.6443V9.35568C27 1.79111 25.1898 0 17.6443 0ZM21.7982 19.2639H19.8356C19.0924 19.2639 18.8638 18.6733 17.53 17.3204C16.3677 16.1962 15.8532 16.0438 15.5674 16.0438C15.1673 16.0438 15.0529 16.1581 15.0529 16.7107V18.4827C15.0529 18.9591 14.9005 19.2449 13.6429 19.2449C11.566 19.2449 9.26041 17.9873 7.64079 15.6436C5.20183 12.2138 4.53493 9.64149 4.53493 9.10797C4.53493 8.82216 4.64926 8.5554 5.20183 8.5554H7.16443C7.65984 8.5554 7.85039 8.78405 8.04093 9.31757C9.0127 12.1186 10.6323 14.5766 11.2992 14.5766C11.5469 14.5766 11.6613 14.4622 11.6613 13.8334V10.9372C11.585 9.60339 10.88 9.48906 10.88 9.0127C10.88 8.78405 11.0706 8.5554 11.3754 8.5554H14.4622C14.8814 8.5554 15.0339 8.78405 15.0339 9.27946V13.1856C15.0339 13.6048 15.2244 13.7572 15.3387 13.7572C15.5864 13.7572 15.796 13.6048 16.2533 13.1475C17.6634 11.566 18.6733 9.12703 18.6733 9.12703C18.8066 8.84121 19.0353 8.57445 19.5307 8.57445H21.4933C22.084 8.57445 22.2174 8.87932 22.084 9.29852C21.8363 10.4418 19.4354 13.8334 19.4354 13.8334C19.2258 14.1764 19.1496 14.3289 19.4354 14.71C19.645 14.9958 20.331 15.5864 20.7883 16.12C21.6267 17.0727 22.2745 17.873 22.446 18.4255C22.6366 18.9781 22.3507 19.2639 21.7982 19.2639Z" fill="#F3F3F3"/>
</svg>
