<?xml version="1.0" encoding="utf-8"?>
<!-- Generator: Adobe Illustrator 26.5.0, SVG Export Plug-In . SVG Version: 6.00 Build 0)  -->
<svg version="1.1" id="Слой_1" xmlns="http://www.w3.org/2000/svg" xmlns:xlink="http://www.w3.org/1999/xlink" x="0px" y="0px"
	 viewBox="0 0 229 232" style="enable-background:new 0 0 229 232;" xml:space="preserve">
<style type="text/css">
	.st0{fill:#FFFFFF;}
</style>
<path class="st0" d="M153.7,2c4,0.7,8.1,1.2,12.1,2.1c27.3,6.2,46.9,28.2,49.8,56.1c2.3,22.3-4.6,41.6-20.3,57.5
	c-30.5,30.8-61.3,61.4-92,92c-14.4,14.4-36.4,18-55,9.2c-14.9-7-24.7-18.4-27.9-34.7c-3.3-16.8,1.3-31.5,13.3-43.6
	c30.7-30.8,61.4-61.6,92.3-92.3c16.6-16.5,43.7-10,50.7,12c3.4,10.8,1.3,20.7-6.2,29.3c-3.4,3.9-7.2,7.4-10.9,11.1
	c-17.4,17.5-34.9,34.9-52.3,52.4c-0.6,0.6-1,1.4-1.5,2c-5.5-5.5-10.5-10.7-15.8-16c0.3-0.3,0.8-0.9,1.4-1.5
	c20.4-20.4,40.8-40.8,61.2-61.2c1.8-1.8,3.3-3.8,3.3-6.6c0-3.4-1.5-6-4.5-7.6c-3-1.5-5.9-1.2-8.6,0.7c-0.7,0.5-1.3,1.1-1.9,1.7
	c-30.4,30.4-60.8,60.8-91.2,91.2c-10.6,10.6-11,26-1.2,36.5c9.6,10.3,28.3,12.5,39.7,1c30.1-30.5,60.5-60.7,90.8-91
	c9.6-9.6,14.8-21.2,14.7-34.9c-0.1-21.3-13.4-37.8-34.2-42.2c-17.3-3.6-32.7,0.4-45.5,13.2C94.1,59,73.8,79.2,53.5,99.4
	c-0.6,0.6-1,1.2-1.4,1.6c-5.3-5.3-10.5-10.5-15.8-15.8c0.3-0.3,0.8-0.9,1.4-1.5C58,63.5,78.3,43.4,98.5,23
	C110.6,10.8,125.2,4,142.3,2.3c0.5,0,1-0.2,1.5-0.3C147.1,2,150.4,2,153.7,2z"/>
</svg>
