<svg width="40" height="28" viewBox="0 0 40 28" fill="none" xmlns="http://www.w3.org/2000/svg">
<path d="M39.4995 5.57679C39.1203 2.62142 37.3902 0.767676 34.3194 0.49386C30.8034 0.180422 23.192 0 19.6616 0C12.4402 0 9.21312 0.174054 5.79817 0.522869C2.54382 0.854703 1.1192 2.2818 0.55924 5.22798C0.167055 7.29257 0 9.22626 0 13.7962C0 17.9013 0.196451 20.4831 0.500448 22.6553C0.918444 25.6382 2.99337 27.3144 6.03406 27.5642C9.57161 27.855 16.6582 28 20.162 28C23.5476 28 31.1669 27.8259 34.5546 27.4481C37.5867 27.1099 39.0285 25.5116 39.4995 22.5683C39.4995 22.5683 40 19.344 40 13.7672C40 10.5918 39.7648 7.63855 39.4995 5.57679ZM15.7469 19.5478V8.20033L26.6958 13.816L15.7469 19.5478Z" fill="#F3F3F3"/>
</svg>
