<svg id="Calque_1" xmlns="http://www.w3.org/2000/svg" width="8.76cm" height="8.53cm" viewBox="0 0 248.28 241.89"><defs><linearGradient id="linear-gradient" x1="284.5" y1="191.03" x2="261.91" y2="191.03" gradientTransform="scale(-1 1) rotate(-45 157.552 567.25)" gradientUnits="userSpaceOnUse"><stop offset="0"/><stop offset=".04" stop-color="#020202"/><stop offset=".06" stop-color="#0a0a0a"/><stop offset=".08" stop-color="#171717"/><stop offset=".09" stop-color="#2b2b2b"/><stop offset=".1" stop-color="#444"/><stop offset=".12" stop-color="#636363"/><stop offset=".13" stop-color="#888"/><stop offset=".14" stop-color="#b3b3b3"/><stop offset=".15" stop-color="#e2e2e2"/><stop offset=".15" stop-color="#fff"/><stop offset=".28" stop-color="#f7f7f7"/><stop offset=".28" stop-color="#e0e0e0"/><stop offset=".29" stop-color="#bbb"/><stop offset=".3" stop-color="#9b9b9b"/><stop offset=".3" stop-color="gray"/><stop offset=".31" stop-color="#6a6a6a"/><stop offset=".32" stop-color="#595959"/><stop offset=".33" stop-color="#4d4d4d"/><stop offset=".35" stop-color="#464646"/><stop offset=".4" stop-color="#454545"/><stop offset=".52" stop-color="#464646"/><stop offset=".56" stop-color="#4d4d4d"/><stop offset=".6" stop-color="#595959"/><stop offset=".62" stop-color="#6a6a6a"/><stop offset=".64" stop-color="gray"/><stop offset=".65" stop-color="#858585"/><stop offset=".76" stop-color="#4d4d4d"/><stop offset=".77" stop-color="#393939"/><stop offset=".78" stop-color="#282828"/><stop offset=".79" stop-color="#1c1c1c"/><stop offset=".81" stop-color="#151515"/><stop offset=".86" stop-color="#141414"/><stop offset=".87"/><stop offset="1" stop-color="#6e6e6e"/></linearGradient><linearGradient id="linear-gradient-2" x1="284.5" y1="136.8" x2="261.91" y2="136.8" gradientTransform="matrix(0 -1 -1 0 201.85 454.29)" gradientUnits="userSpaceOnUse"><stop offset="0"/><stop offset=".04" stop-color="#020202"/><stop offset=".06" stop-color="#0a0a0a"/><stop offset=".08" stop-color="#171717"/><stop offset=".09" stop-color="#2b2b2b"/><stop offset=".1" stop-color="#444"/><stop offset=".12" stop-color="#636363"/><stop offset=".13" stop-color="#888"/><stop offset=".14" stop-color="#b3b3b3"/><stop offset=".15" stop-color="#e2e2e2"/><stop offset=".15" stop-color="#fff"/><stop offset=".28" stop-color="#f7f7f7"/><stop offset=".28" stop-color="#e0e0e0"/><stop offset=".29" stop-color="#bbb"/><stop offset=".3" stop-color="#9b9b9b"/><stop offset=".3" stop-color="gray"/><stop offset=".31" stop-color="#6a6a6a"/><stop offset=".32" stop-color="#595959"/><stop offset=".33" stop-color="#4d4d4d"/><stop offset=".35" stop-color="#464646"/><stop offset=".4" stop-color="#454545"/><stop offset=".52" stop-color="#464646"/><stop offset=".56" stop-color="#4d4d4d"/><stop offset=".6" stop-color="#595959"/><stop offset=".62" stop-color="#6a6a6a"/><stop offset=".64" stop-color="gray"/><stop offset=".65" stop-color="#858585"/><stop offset=".76" stop-color="#4d4d4d"/><stop offset=".77" stop-color="#393939"/><stop offset=".78" stop-color="#282828"/><stop offset=".79" stop-color="#1c1c1c"/><stop offset=".81" stop-color="#151515"/><stop offset=".86" stop-color="#141414"/><stop offset=".87"/><stop offset="1" stop-color="#6e6e6e"/></linearGradient><linearGradient id="linear-gradient-3" x1="267.12" y1="88.66" x2="279.29" y2="76.49" gradientTransform="scale(-1 1) rotate(-45 157.552 567.25)" gradientUnits="userSpaceOnUse"><stop offset="0" stop-color="#fafafa"/><stop offset=".15" stop-color="#9b9b9b"/><stop offset=".44" stop-color="#fff"/><stop offset=".8" stop-color="#f7f7f7"/><stop offset=".84" stop-color="#e1e1e1"/><stop offset=".92" stop-color="#a9a9a9"/><stop offset="1" stop-color="#6e6e6e"/></linearGradient><linearGradient id="linear-gradient-4" x1="134.68" y1="143.33" x2="144.51" y2="133.51" gradientTransform="matrix(-1 0 0 1 247.79 0)" gradientUnits="userSpaceOnUse"><stop offset="0" stop-color="#fff"/><stop offset=".15" stop-color="#7a7b7b"/><stop offset=".23" stop-color="#484848"/><stop offset=".52" stop-color="#fff"/><stop offset=".71" stop-color="#fff"/><stop offset=".88" stop-color="#4d4c4d"/><stop offset="1" stop-color="#fff"/></linearGradient><linearGradient id="linear-gradient-5" x1="3068.36" y1="-1306.87" x2="3212.33" y2="-1306.87" gradientTransform="matrix(1 0 0 -1 -2980.73 -1226.29)" gradientUnits="userSpaceOnUse"><stop offset="0" stop-color="#48484a"/><stop offset=".47" stop-color="#8a8b8d"/><stop offset=".82" stop-color="#b6b7b9"/><stop offset="1" stop-color="#c7c9cb"/></linearGradient><linearGradient id="linear-gradient-6" x1="17.58" y1="80.59" x2="158.79" y2="80.59" gradientTransform="matrix(-1 0 0 1 247.79 0)" gradientUnits="userSpaceOnUse"><stop offset=".02"/><stop offset="1" stop-color="#dbd9d9"/></linearGradient><radialGradient id="radial-gradient" cx="89.09" cy="76.04" fx="89.09" fy="76.04" r="76.93" gradientTransform="matrix(-1 0 0 1 247.79 0)" gradientUnits="userSpaceOnUse"><stop offset=".33" stop-color="#fff"/><stop offset=".86" stop-color="#eaf1ef"/><stop offset=".9" stop-color="#e3edea"/><stop offset=".95" stop-color="#d0e1dd"/><stop offset="1" stop-color="#bdd6cf"/></radialGradient></defs><path fill="none" d="M4.4 2.7h239v239H4.4z"/><path d="M18.07 212.09c1.77-1.76 6.77.38 11.18 4.79s6.56 9.42 4.79 11.18c-1.77 1.76-6.77-.38-11.18-4.79s-6.56-9.42-4.79-11.18z"/><path d="M18.71 211.45c1.76-1.77 6.77.38 11.18 4.79s6.56 9.42 4.79 11.18c-1.76 1.76-6.77-.38-11.18-4.79s-6.56-9.42-4.79-11.18z" fill="url(#linear-gradient)"/><path transform="rotate(-45 65.04 181.09)" fill="url(#linear-gradient-2)" d="M10.82 169.8h108.45v22.59H10.82z"/><path d="M95.4 134.76c-1.77 1.76.38 6.77 4.79 11.18s9.42 6.56 11.18 4.79c1.76-1.76-.38-6.77-4.79-11.18s-9.42-6.56-11.18-4.79z" fill="url(#linear-gradient-3)"/><path d="M98.83 137.96l10.87-10.87 9.83 9.82-10.87 10.87c-1.09 1.09-4.16-.23-6.88-2.95-2.71-2.71-4.03-5.79-2.95-6.88z" fill="url(#linear-gradient-4)"/><path d="M159.61 8.6c-39.7 0-71.99 32.29-71.99 71.99s32.29 71.99 71.99 71.99 71.99-32.29 71.99-71.99S199.31 8.6 159.61 8.6zm0 138.9c-36.89 0-66.91-30.02-66.91-66.91s30.02-66.92 66.91-66.92 66.91 30.02 66.91 66.91-30.02 66.91-66.91 66.91z" fill="url(#linear-gradient-5)"/><path d="M159.61 151.19c38.93 0 70.61-31.67 70.61-70.61s-31.68-70.6-70.61-70.6S89 41.65 89 80.59s31.67 70.61 70.61 70.61zm0-136.23c36.19 0 65.62 29.44 65.62 65.63s-29.44 65.63-65.62 65.63-65.62-29.44-65.62-65.63 29.44-65.63 65.62-65.63z" fill="url(#linear-gradient-6)"/><path d="M159.61 13.12c-37.24 0-67.47 30.23-67.47 67.47s30.22 67.47 67.47 67.47 67.48-30.23 67.48-67.47-30.24-67.47-67.48-67.47z" fill="url(#radial-gradient)" fill-rule="evenodd"/><path d="M129.32 33.95c-.94 10.94 14.29 21.18 34.01 22.87 19.72 1.69 36.47-5.81 37.4-16.76.94-10.94-14.29-21.19-34.01-22.87C147 15.5 130.25 23 129.31 33.95z" fill="#fff"/></svg>